PathFileType	4	(X/Y/Z)	RBDS028\RBDS028runT35.trc
DataRate	CameraRate	NumFrames	NumMarkers	Units	OrigDataRate	OrigDataStartFrame	OrigNumFrames
150.000000	150.000000	6	33	mm	150.000000	562	4500
Frame#	Time	L.ASIS			L.Heel.Bottom			L.Heel.Lateral			L.Heel.Top			L.Iliac.Crest			L.MT1			L.MT5			L.PSIS			L.Shank.Bottom.Lateral			L.Shank.Bottom.Medial			L.Shank.Top.Lateral			L.Shank.Top.Medial			L.Thigh.Bottom.Lateral			L.Thigh.Bottom.Medial			L.Thigh.Top.Lateral			L.Thigh.Top.Medial			R.ASIS			R.ASY			R.Heel.Bottom			R.Heel.Lateral			R.Heel.Top			R.Iliac.Crest			R.MT1			R.MT5			R.PSIS			R.Shank.Bottom.Lateral			R.Shank.Bottom.Medial			R.Shank.Top.Lateral			R.Shank.Top.Medial			R.Thigh.Bottom.Lateral			R.Thigh.Bottom.Medial			R.Thigh.Top.Lateral			R.Thigh.Top.Medial			
		X1	Y1	Z1	X2	Y2	Z2	X3	Y3	Z3	X4	Y4	Z4	X5	Y5	Z5	X6	Y6	Z6	X7	Y7	Z7	X8	Y8	Z8	X9	Y9	Z9	X10	Y10	Z10	X11	Y11	Z11	X12	Y12	Z12	X13	Y13	Z13	X14	Y14	Z14	X15	Y15	Z15	X16	Y16	Z16	X17	Y17	Z17	X18	Y18	Z18	X19	Y19	Z19	X20	Y20	Z20	X21	Y21	Z21	X22	Y22	Z22	X23	Y23	Z23	X24	Y24	Z24	X25	Y25	Z25	X26	Y26	Z26	X27	Y27	Z27	X28	Y28	Z28	X29	Y29	Z29	X30	Y30	Z30	X31	Y31	Z31	X32	Y32	Z32	X33	Y33	Z33	

563	3.746666666666667	1942.649547600229	884.1109266744136	883.5352609008571	2061.197328677604	48.93844564263485	918.8226505714446	2094.553407178634	63.5436093456384	877.4717735103027	2065.752066558288	93.73537952487547	913.9499362719048	1868.80711604203	935.0310567449862	848.9234050065796	2271.436687376584	91.45413827029142	984.8405098894899	2251.629344126221	66.04870084728755	875.9331490309097	1787.17075205528	900.2530079228039	950.9571341922068	2113.455374355304	196.2446899092355	864.1503930960478	2072.656552643778	189.1830740827497	893.9663808439528	2091.463459766077	272.0366205840821	846.3613175290239	2051.046298942262	270.4752423181793	881.1418943729652	2050.960902152747	587.9183339480185	830.0105611120521	1993.119873045689	551.2346275617529	854.8803196744295	1989.432165782541	678.36706780009	819.6946226652468	1933.859443464578	642.6470318546692	841.8719924031077	1941.938852237423	866.9646766246281	1114.753756875487	1439.503316804149	165.8261635302082	1037.734202705288	1339.977999806685	323.3430355233982	997.6901730331365	1356.79045952991	301.2919883485904	1045.54042367029	1384.793142490863	326.5402729761284	1007.68195023061	1912.301264135752	938.2109548568432	1130.724090127006	1418.805970063407	117.348173203815	983.1998890688627	1375.975112690785	150.8049162261726	1082.716047502672	1793.568069694255	905.4596269434384	1045.61081412783	1473.366934159171	321.6072555527665	1077.348680021402	1458.597141012161	351.9920796036751	1033.325225975837	1529.80295248152	377.4678404702727	1094.33715791175	1515.436747824594	405.537278067992	1050.715284992769	1775.34597929098	553.4238123478019	1130.610844501189	1721.713530366088	577.0512774305819	1089.331552674726	1806.052389089213	657.995231531121	1148.80663002524	1754.719613996424	679.7847968056844	1109.278064425527	
564	3.753333333333333	1941.932147578586	883.3409029104503	882.9762235350861	2062.816120910471	44.74972210968933	923.2028186170791	2095.543495870652	58.08296915901182	881.0191303127191	2067.124217625366	89.38060011503892	916.7214528442478	1867.803213663977	933.6737105319357	848.9136051413192	2273.00996115373	89.85110336479583	986.1807312031696	2252.220012591607	61.15349327203494	877.9234731749693	1787.084600424254	898.5479937630878	951.5843174064406	2112.053595510005	191.7799265610525	865.2567207270719	2072.072081088575	184.2790532948405	896.0286846006757	2088.547922963691	267.1805107562487	847.3338107296736	2048.956682118976	265.2857602593834	883.0219370535372	2046.687122357403	583.7111812168138	828.2640907718685	1988.628206693312	548.0828821881529	854.2261339726326	1986.338735048436	675.0217333182014	818.2149082039869	1930.518277434973	640.2794873076662	841.4841692618553	1943.286983611446	866.9254289825725	1114.361119738891	1435.18764012816	177.8423360282004	1037.344721568658	1342.826450383393	339.4047968181048	996.9400396256058	1358.81570105734	317.0064042460206	1044.840945772119	1387.763755836401	340.567873543697	1006.68811702428	1911.341111020496	938.3558415535778	1130.479137768968	1411.646871930938	129.9482999692918	983.6311818355416	1371.071465555171	166.1688953911761	1083.201282097461	1794.216907431173	904.0327344410276	1046.095759837453	1475.794166659872	330.4525290847145	1076.998267948269	1462.58695373721	361.9562152183968	1033.247709268233	1534.906936899347	383.2991927366413	1094.499039812406	1521.971123855062	412.4531007768757	1051.183214626317	1783.886602466644	548.6208333822528	1131.370689818175	1729.401837550558	571.1014377729449	1090.617277362915	1812.154228983257	653.8070107570204	1149.602908580229	1759.769127744693	674.4939748634806	1110.929361693352	
565	3.76	1941.092312921584	882.0564384677385	882.296089121035	2060.089456023991	41.47891392671673	928.0215900041547	2092.071591582607	53.55067934384283	884.915169047903	2064.612576093275	85.88742476026637	920.2400064296335	1866.870069726773	931.9517103719298	848.7611667944814	2270.797248477274	86.52673467076318	986.933985323046	2248.223930968546	55.84846706215561	879.2718423530063	1786.959215530545	896.260620714106	952.075993573183	2107.891174787857	187.2032463256725	866.821287965043	2068.750709779529	179.7632477873873	898.6358923469354	2083.674612174667	262.3867460314289	848.7390228654672	2045.017250133875	260.6319793596812	885.4150079040429	2042.595661169429	579.5078027008967	826.7553160223462	1984.492382421481	544.7873562680888	853.846667418421	1983.163855665827	671.4610200157248	816.9169393845785	1927.252682545856	637.5440524622916	841.2686123441679	1944.570966798145	866.4306442143479	1113.928447158622	1432.573162270789	190.0626847221545	1036.768953535634	1347.49076190085	355.1872045162015	996.3556645723538	1362.743710920392	332.4482785376517	1044.257883291785	1392.42980295445	354.3373758689895	1005.840840945084	1910.005013246987	937.9099424231816	1130.239701843011	1406.202433730484	142.9358462959055	983.8412230200639	1368.200206801933	181.7402952403144	1083.590908669029	1794.810419595529	901.9402939147393	1046.389860274255	1479.757338264644	339.13681625933	1076.698990615062	1468.233045616876	371.7339404818367	1033.256927671686	1541.465390753156	388.7536761599914	1094.818693617798	1530.087853075186	418.97149771532	1051.819656387061	1793.066264309927	543.0676686698905	1132.432999220422	1737.858934978467	564.0687648794167	1091.960475653215	1818.509527888354	648.9681641568324	1150.406038784408	1765.172846965606	668.2397592997944	1112.345402487601	
566	3.766666666666667	1940.127845775773	880.2310952090138	881.4569610538915	2053.200123860921	38.88135535839529	933.0746027306897	2084.366496901346	49.86070885167516	889.0421975047876	2058.313950108186	83.05402898639409	924.4168881344112	1865.952191676684	929.8146124698086	848.4862278081952	2264.945671165882	81.63155152609265	987.3137799774375	2239.947740662232	50.3876685889503	880.1017577670042	1786.800459712265	893.3786057057831	952.4860784393918	2101.17978328954	182.4347187248666	868.8773451615199	2062.806464481815	175.5541642232765	901.6964323397146	2077.061581311379	257.5715096719697	850.5319426090933	2039.348301141798	256.4265115370342	888.1660056269654	2038.687405661898	575.2418839499526	825.5253632940049	1980.698190662363	541.2914603087714	853.7584349058401	1979.933667681548	667.650270909978	815.8433191338265	1924.073772357455	634.41702518365	841.248536222026	1945.832020230277	865.4181820797338	1113.428635157371	1431.712742472273	202.2465360238287	1036.131077358618	1354.090804616508	370.5240238354445	995.8854379954129	1368.633663086315	347.4392526072017	1043.773077708853	1398.915420245401	367.6632403484857	1005.134579410564	1908.55839682472	936.7714888575931	1130.025211166722	1402.586884189507	156.0588515621679	983.9200060352999	1367.353545891823	197.2553069633072	1083.894593769681	1795.37996249452	899.1486538922356	1046.564684702442	1485.276385564892	347.5411276657775	1076.486925776745	1475.537024061087	381.1357662132818	1033.361232347062	1549.421616704479	393.7798002198176	1095.302926971414	1539.712496340979	424.9764504850044	1052.60478623089	1802.675534140672	536.9600942329247	1133.786235688726	1746.934060436764	556.1821233331665	1093.30814137226	1824.992411199989	643.6329151929775	1151.193100407411	1770.869367314601	661.2076386913069	1113.446885734929	
567	3.773333333333333	1939.036322861725	877.855593135048	880.4308563584298	2042.471927348496	36.73857136877129	938.1545013471266	2072.806819830041	46.93240801149756	893.2793691158613	2048.448279315533	80.69652500129091	929.1234750071925	1864.993404805955	927.1984883326211	848.1194123757555	2255.673674541961	75.48394723105086	987.5484506342651	2227.826427559915	45.07372729253758	880.5785138690248	1786.602372471176	889.9035686566478	952.8715597499177	2092.18086038848	177.4542252330677	871.4253639275009	2054.416307301549	171.6064411899323	905.0906499781024	2068.948782046529	252.6897668075868	852.6438542069113	2032.10148625125	252.5982139442128	891.1018693837891	2034.928215399393	570.8344806970374	824.5759243996064	1977.190270072111	537.5422652680771	853.9549721166189	1976.659925299513	663.5558264357913	815.0043740203824	1920.97247244757	630.8911530521053	841.4311238648824	1947.091138582348	863.8431381701788	1112.837235034292	1432.63538100271	214.1497989527504	1035.558118349926	1362.669887493786	385.2195269444047	995.4620136026754	1376.476538238621	361.7892758627244	1043.353865517282	1407.27096860911	380.3446078665054	1004.537498693232	1907.258386723521	934.8639349986431	1129.850107721284	1400.895459826874	169.0415487053903	983.9788670596333	1368.496913884671	212.4490006347989	1084.140868284693	1795.93837170655	895.6408945453372	1046.693074789305	1492.336319199334	355.5390850999518	1076.38949119802	1484.462181907136	389.9743779787932	1033.561136607059	1558.699849875215	398.3214069269306	1095.949349220348	1550.747235432843	430.3552214136167	1053.511367030564	1812.524677814554	530.4911787913561	1135.405419274664	1756.479400765806	547.6791757221728	1094.61649566805	1831.493437389795	637.9516570576246	1151.950788057733	1776.796584803001	653.5894117776161	1114.192303858684	
568	3.78	1937.814021088244	874.9428846082765	879.2048784522738	2028.342074174238	34.87571575596653	943.0660000044413	2057.887025367605	44.69131676902362	897.5070130175404	2035.34200858554	78.66437902302393	934.1969536355336	1863.946131208778	924.0378265072248	847.6987171846146	2243.268641973676	68.52951498981621	987.8453994922259	2212.391323816645	40.21299978332345	880.8826480912185	1786.346146582821	885.8585290466867	953.2862268384409	2081.181833792669	172.3052577784626	874.4259069384872	2043.808108194511	167.9167999321255	908.6802485393634	2059.574884050151	247.7439146717122	854.9872128832934	2023.448162540003	249.1031765714556	894.0503731660348	2031.255565771288	566.2145125571825	823.8762157403401	1973.879783635809	533.5054421732058	854.4091307003155	1973.33974192919	659.1592016974654	814.3815734078834	1917.921035072353	626.9851425955618	841.8070671747511	1948.346084119393	861.6818158494127	1112.135074283693	1435.349043662074	225.5360868897184	1035.161572163643	1373.179119299855	399.0613564874704	995.0218064984506	1386.190885016495	375.3048093485302	1042.965602248313	1417.460141511642	392.1812854125002	1004.004720914653	1906.320517274147	932.147429412425	1129.72178226394	1401.198692925712	181.5982018673834	984.1348582108325	1371.580040203554	227.0601996427827	1084.37604342139	1796.47622595391	891.426502932939	1046.8410998542	1500.887179507255	363.0042164370941	1076.424880124585	1494.932720917582	398.0791888002422	1033.851989068286	1569.209028104244	402.321517234607	1096.747658746179	1563.074137816698	435.008439287112	1054.509266333184	1822.459975798449	523.8385198102012	1137.254613679645	1766.360694999938	538.7891689610988	1095.858992723418	1837.928298012462	632.0608982493737	1152.676504685627	1782.895753322352	645.5688834718329	1114.583923630943	
